<mxfile host="app.diagrams.net" modified="2023-05-08T05:59:37.147Z" agent="Mozilla/5.0 (Windows NT 10.0; Win64; x64) AppleWebKit/537.36 (KHTML, like Gecko) Chrome/113.0.0.0 Safari/537.36" version="21.1.2" etag="4vK9u5OoiOOyOcWtoetb" type="github">
  <diagram name="第 1 页" id="r8Z1By2qI7Xen5kdXsKr">
    <mxGraphModel>
      <root>
        <mxCell id="0" />
        <mxCell id="1" parent="0" />
      </root>
    </mxGraphModel>
  </diagram>
</mxfile>
